# xmcd
#
# Track frame offsets:
#	151
#	10161
#	20689
#	30223
#	40250
#	51754
#	63015
#	73800
#	84114
#	96170
#	106655
#	116961
#	127882
#	141130
#	150330
#	164663
#	177074
#
# Disc length: 2471 seconds
#
# Revision: 0
# Processed by: cddbd v1.4PL0 Copyright (c) Steve Scherf et al.
# Submitted via: dBpowerAMP V4.0
#
DISCID=cd09a511
DTITLE=Chet Atkins - Legendary [CD2]
DYEAR=2003
DGENRE=Country
TTITLE0=Boo Boo Stick Beat
TTITLE1=Oh Lonesome Me
TTITLE2=One Mint Julep
TTITLE3=Teensville
TTITLE4=Sleepwalk
TTITLE5=Django's Castle (Manoir De Mes Reves)
TTITLE6=Hot Toddy (with Les Paul)
TTITLE7=Trambone
TTITLE8=Take Five
TTITLE9=Alley Cat
TTITLE10=Susie-Q
TTITLE11=Blackjack
TTITLE12=It Don't Mean A Thing (If It Ain't Got That Swing) (with Les Paul)
TTITLE13=Yakety Axe
TTITLE14=Yesterday
TTITLE15=Michelle
TTITLE16=Country Gentlemen (with Arthur Fiedler and Boston Pops)
EXTD=My name's Isaac
EXTT0=
EXTT1=
EXTT2=
EXTT3=
EXTT4=
EXTT5=
EXTT6=
EXTT7=
EXTT8=
EXTT9=
EXTT10=
EXTT11=
EXTT12=
EXTT13=
EXTT14=
EXTT15=
EXTT16=
PLAYORDER=
